<svg width="40" height="40" viewBox="0 0 40 40" fill="none" xmlns="http://www.w3.org/2000/svg">
<rect width="40" height="40" fill="white"/>
<path d="M20 0C9 0 0 9 0 20C0 31 9 40 20 40C31 40 40 31 40 20C40 9 31 0 20 0Z" fill="black"/>
<path d="M21.9 19.2L20.1 25.9C19.9 26.5 20.3 27.3 20.9 27.5C21.1 27.6 21.3 27.8 21.3 28.1V28.3C21.3 28.6 21 28.9 20.7 28.9H18.8C17.8 28.9 16.9 28 16.9 27C16.9 26.8 16.9 26.7 17 26.5L18.8 19.8C19 19.2 18.6 18.4 18 18.2C17.8 18.1 17.6 17.9 17.6 17.6V17.4C17.6 17.1 17.9 16.8 18.2 16.8H20C21 16.8 21.9 17.7 21.9 18.7C21.9 18.9 21.9 19 21.9 19.2Z" fill="white"/>
<path d="M21 14.9C19.9 15 18.8 14.1 18.8 13C18.9 11.9 19.9 11 21 11.1C22.1 11 23.2 11.9 23.2 13C23.1 14.1 22.1 15 21 14.9Z" fill="white"/>
</svg>
